<mxfile host="app.diagrams.net" agent="Mozilla/5.0 (Macintosh; Intel Mac OS X 10_15_7) AppleWebKit/537.36 (KHTML, like Gecko) Chrome/129.0.0.0 Safari/537.36" version="24.7.17">
  <diagram name="第 1 页" id="u27uuo44n3fMNPvbGqdK">
    <mxGraphModel dx="1434" dy="710" grid="1" gridSize="10" guides="1" tooltips="1" connect="1" arrows="1" fold="1" page="1" pageScale="1" pageWidth="827" pageHeight="1169" math="0" shadow="0">
      <root>
        <mxCell id="0" />
        <mxCell id="1" parent="0" />
        <mxCell id="l0jwTOPynNjnsmJzcvCk-4" value="" style="rounded=0;whiteSpace=wrap;html=1;fillColor=#f5f5f5;strokeColor=#666666;fontColor=#333333;" vertex="1" parent="1">
          <mxGeometry x="190" y="270" width="230" height="260" as="geometry" />
        </mxCell>
        <mxCell id="l0jwTOPynNjnsmJzcvCk-18" style="edgeStyle=orthogonalEdgeStyle;rounded=0;orthogonalLoop=1;jettySize=auto;html=1;exitX=1;exitY=0.25;exitDx=0;exitDy=0;entryX=0;entryY=0.25;entryDx=0;entryDy=0;" edge="1" parent="1" source="l0jwTOPynNjnsmJzcvCk-5" target="l0jwTOPynNjnsmJzcvCk-11">
          <mxGeometry relative="1" as="geometry" />
        </mxCell>
        <mxCell id="l0jwTOPynNjnsmJzcvCk-25" style="edgeStyle=orthogonalEdgeStyle;rounded=0;orthogonalLoop=1;jettySize=auto;html=1;exitX=0.25;exitY=1;exitDx=0;exitDy=0;entryX=0.25;entryY=0;entryDx=0;entryDy=0;" edge="1" parent="1" source="l0jwTOPynNjnsmJzcvCk-5" target="l0jwTOPynNjnsmJzcvCk-6">
          <mxGeometry relative="1" as="geometry" />
        </mxCell>
        <mxCell id="l0jwTOPynNjnsmJzcvCk-31" style="edgeStyle=orthogonalEdgeStyle;rounded=0;orthogonalLoop=1;jettySize=auto;html=1;exitX=0;exitY=0.5;exitDx=0;exitDy=0;endArrow=none;endFill=0;startArrow=block;" edge="1" parent="1">
          <mxGeometry relative="1" as="geometry">
            <mxPoint x="245" y="341" as="sourcePoint" />
            <mxPoint x="90" y="341" as="targetPoint" />
          </mxGeometry>
        </mxCell>
        <mxCell id="l0jwTOPynNjnsmJzcvCk-5" value="存储模块" style="rounded=0;whiteSpace=wrap;html=1;fillColor=#ffe6cc;strokeColor=#d79b00;" vertex="1" parent="1">
          <mxGeometry x="245" y="320" width="120" height="60" as="geometry" />
        </mxCell>
        <mxCell id="l0jwTOPynNjnsmJzcvCk-26" style="edgeStyle=orthogonalEdgeStyle;rounded=0;orthogonalLoop=1;jettySize=auto;html=1;exitX=0.75;exitY=0;exitDx=0;exitDy=0;entryX=0.75;entryY=1;entryDx=0;entryDy=0;" edge="1" parent="1" source="l0jwTOPynNjnsmJzcvCk-6" target="l0jwTOPynNjnsmJzcvCk-5">
          <mxGeometry relative="1" as="geometry" />
        </mxCell>
        <mxCell id="l0jwTOPynNjnsmJzcvCk-6" value="TSDB" style="rounded=0;whiteSpace=wrap;html=1;" vertex="1" parent="1">
          <mxGeometry x="245" y="440" width="120" height="60" as="geometry" />
        </mxCell>
        <mxCell id="l0jwTOPynNjnsmJzcvCk-7" value="Prometheus" style="text;html=1;align=center;verticalAlign=middle;whiteSpace=wrap;rounded=0;" vertex="1" parent="1">
          <mxGeometry x="220" y="280" width="60" height="30" as="geometry" />
        </mxCell>
        <mxCell id="l0jwTOPynNjnsmJzcvCk-19" style="edgeStyle=orthogonalEdgeStyle;rounded=0;orthogonalLoop=1;jettySize=auto;html=1;exitX=0;exitY=0.75;exitDx=0;exitDy=0;entryX=1;entryY=0.75;entryDx=0;entryDy=0;" edge="1" parent="1" source="l0jwTOPynNjnsmJzcvCk-11" target="l0jwTOPynNjnsmJzcvCk-5">
          <mxGeometry relative="1" as="geometry" />
        </mxCell>
        <mxCell id="l0jwTOPynNjnsmJzcvCk-20" style="edgeStyle=orthogonalEdgeStyle;rounded=0;orthogonalLoop=1;jettySize=auto;html=1;exitX=1;exitY=0.25;exitDx=0;exitDy=0;entryX=0;entryY=0.25;entryDx=0;entryDy=0;" edge="1" parent="1" source="l0jwTOPynNjnsmJzcvCk-11" target="l0jwTOPynNjnsmJzcvCk-12">
          <mxGeometry relative="1" as="geometry" />
        </mxCell>
        <mxCell id="l0jwTOPynNjnsmJzcvCk-11" value="Adapter" style="rounded=1;whiteSpace=wrap;html=1;fillColor=#f8cecc;strokeColor=#b85450;" vertex="1" parent="1">
          <mxGeometry x="580" y="320" width="120" height="60" as="geometry" />
        </mxCell>
        <mxCell id="l0jwTOPynNjnsmJzcvCk-21" style="edgeStyle=orthogonalEdgeStyle;rounded=0;orthogonalLoop=1;jettySize=auto;html=1;exitX=0;exitY=0.75;exitDx=0;exitDy=0;entryX=1;entryY=0.75;entryDx=0;entryDy=0;" edge="1" parent="1" source="l0jwTOPynNjnsmJzcvCk-12" target="l0jwTOPynNjnsmJzcvCk-11">
          <mxGeometry relative="1" as="geometry" />
        </mxCell>
        <mxCell id="l0jwTOPynNjnsmJzcvCk-12" value="3rd Storage" style="rounded=1;whiteSpace=wrap;html=1;fillColor=#f8cecc;strokeColor=#b85450;" vertex="1" parent="1">
          <mxGeometry x="800" y="320" width="120" height="60" as="geometry" />
        </mxCell>
        <mxCell id="l0jwTOPynNjnsmJzcvCk-15" value="HTTP 查询" style="text;html=1;align=center;verticalAlign=middle;whiteSpace=wrap;rounded=0;" vertex="1" parent="1">
          <mxGeometry x="450" y="310" width="80" height="30" as="geometry" />
        </mxCell>
        <mxCell id="l0jwTOPynNjnsmJzcvCk-22" value="内部协议" style="text;html=1;align=center;verticalAlign=middle;whiteSpace=wrap;rounded=0;" vertex="1" parent="1">
          <mxGeometry x="720" y="300" width="60" height="30" as="geometry" />
        </mxCell>
        <mxCell id="l0jwTOPynNjnsmJzcvCk-24" value="返回数据" style="text;html=1;align=center;verticalAlign=middle;whiteSpace=wrap;rounded=0;" vertex="1" parent="1">
          <mxGeometry x="450" y="370" width="80" height="30" as="geometry" />
        </mxCell>
        <mxCell id="l0jwTOPynNjnsmJzcvCk-27" value="查询" style="text;html=1;align=center;verticalAlign=middle;whiteSpace=wrap;rounded=0;" vertex="1" parent="1">
          <mxGeometry x="220" y="400" width="60" height="30" as="geometry" />
        </mxCell>
        <mxCell id="l0jwTOPynNjnsmJzcvCk-30" value="Actor" style="shape=umlActor;verticalLabelPosition=bottom;verticalAlign=top;html=1;outlineConnect=0;" vertex="1" parent="1">
          <mxGeometry x="60" y="312" width="30" height="60" as="geometry" />
        </mxCell>
        <mxCell id="l0jwTOPynNjnsmJzcvCk-33" style="edgeStyle=orthogonalEdgeStyle;rounded=0;orthogonalLoop=1;jettySize=auto;html=1;exitX=0;exitY=0.5;exitDx=0;exitDy=0;endArrow=classic;endFill=1;startArrow=none;startFill=0;" edge="1" parent="1">
          <mxGeometry relative="1" as="geometry">
            <mxPoint x="245" y="356" as="sourcePoint" />
            <mxPoint x="90" y="356" as="targetPoint" />
          </mxGeometry>
        </mxCell>
        <mxCell id="l0jwTOPynNjnsmJzcvCk-34" value="查询" style="text;html=1;align=center;verticalAlign=middle;whiteSpace=wrap;rounded=0;" vertex="1" parent="1">
          <mxGeometry x="120" y="310" width="60" height="30" as="geometry" />
        </mxCell>
        <mxCell id="l0jwTOPynNjnsmJzcvCk-35" value="聚合之后的查询结果" style="text;html=1;align=center;verticalAlign=middle;whiteSpace=wrap;rounded=0;" vertex="1" parent="1">
          <mxGeometry x="105" y="360" width="115" height="30" as="geometry" />
        </mxCell>
      </root>
    </mxGraphModel>
  </diagram>
</mxfile>
